<?xml version="1.0" encoding="UTF-8" standalone="no"?>
<!-- Created with Inkscape (http://www.inkscape.org/) -->

<svg
   xmlns:dc="http://purl.org/dc/elements/1.1/"
   xmlns:cc="http://creativecommons.org/ns#"
   xmlns:rdf="http://www.w3.org/1999/02/22-rdf-syntax-ns#"
   xmlns:svg="http://www.w3.org/2000/svg"
   xmlns="http://www.w3.org/2000/svg"
   xmlns:sodipodi="http://sodipodi.sourceforge.net/DTD/sodipodi-0.dtd"
   xmlns:inkscape="http://www.inkscape.org/namespaces/inkscape"
   width="83.995682mm"
   height="96.680458mm"
   viewBox="0 0 297.62249 342.56855"
   id="svg2"
   version="1.1"
   inkscape:version="0.91 r13725"
   sodipodi:docname="burn.svg"
   inkscape:export-filename="/data/www/newspip/plugins/auto/referer_spam/prive/themes/spip/images/burn-32.png"
   inkscape:export-xdpi="9.6800003"
   inkscape:export-ydpi="9.6800003">
  <defs
     id="defs4" />
  <sodipodi:namedview
     id="base"
     pagecolor="#ffffff"
     bordercolor="#666666"
     borderopacity="1.0"
     inkscape:pageopacity="0.0"
     inkscape:pageshadow="2"
     inkscape:zoom="1.4"
     inkscape:cx="21.373542"
     inkscape:cy="202.6311"
     inkscape:document-units="px"
     inkscape:current-layer="layer1"
     showgrid="false"
     inkscape:window-width="1920"
     inkscape:window-height="989"
     inkscape:window-x="0"
     inkscape:window-y="31"
     inkscape:window-maximized="1"
     fit-margin-top="1"
     fit-margin-left="1"
     fit-margin-right="1"
     fit-margin-bottom="1" />
  <metadata
     id="metadata7">
    <rdf:RDF>
      <cc:Work
         rdf:about="">
        <dc:format>image/svg+xml</dc:format>
        <dc:type
           rdf:resource="http://purl.org/dc/dcmitype/StillImage" />
        <dc:title />
      </cc:Work>
    </rdf:RDF>
  </metadata>
  <g
     inkscape:label="Calque 1"
     inkscape:groupmode="layer"
     id="layer1"
     transform="translate(-198.30588,-161.42999)">
    <path
       sodipodi:type="star"
       style="opacity:1;fill:#ed7d2e;fill-opacity:0;fill-rule:evenodd;stroke:none;stroke-width:4.10900021;stroke-linecap:butt;stroke-linejoin:miter;stroke-miterlimit:4;stroke-dasharray:none;stroke-dashoffset:0;stroke-opacity:0.85098039"
       id="path4152"
       sodipodi:sides="6"
       sodipodi:cx="347.11713"
       sodipodi:cy="332.71426"
       sodipodi:r1="167.74097"
       sodipodi:r2="145.26794"
       sodipodi:arg1="1.5707963"
       sodipodi:arg2="2.0943951"
       inkscape:flatsided="true"
       inkscape:rounded="0"
       inkscape:randomized="0"
       d="m 347.11713,500.45523 -145.26794,-83.87048 0,-167.74097 145.26793,-83.87048 145.26794,83.87048 10e-6,167.74096 z" />
    <g
       style="font-style:normal;font-variant:normal;font-weight:normal;font-stretch:normal;font-size:165px;line-height:125%;font-family:'League Gothic';-inkscape-font-specification:'League Gothic';letter-spacing:0px;word-spacing:0px;fill:#000000;fill-opacity:0.46440681;stroke:none;stroke-width:1px;stroke-linecap:butt;stroke-linejoin:miter;stroke-opacity:1"
       id="text4142"
       transform="matrix(-1.3894902,0,0,1.3894902,849.68795,-66.197078)" />
    <g
       id="g4182"
       transform="matrix(1.1835069,0,0,1.1835069,-59.138862,-60.268685)">
      <g
         style="font-style:normal;font-variant:normal;font-weight:normal;font-stretch:normal;font-size:165px;line-height:125%;font-family:'League Gothic';-inkscape-font-specification:'League Gothic';letter-spacing:0px;word-spacing:0px;fill:#000000;fill-opacity:0.46440681;stroke:none;stroke-width:1px;stroke-linecap:butt;stroke-linejoin:miter;stroke-opacity:1"
         id="g4163"
         transform="matrix(1.8008658,0,0,1.8008658,-288.92221,-219.96806)">
        <path
           d="m 388.21428,292.71933 c 0,4.78795 -0.7673,9.20759 -2.3019,13.25893 -1.47321,4.05134 -3.4375,7.51953 -5.89285,10.40457 -2.39397,2.82367 -5.06418,5.52456 -8.01061,8.10268 -2.94643,2.51674 -5.89285,4.88002 -8.83928,7.08985 -2.94643,2.20982 -5.64732,4.41964 -8.10268,6.62946 -2.39397,2.20982 -4.35826,4.72656 -5.89286,7.55022 -1.47321,2.76228 -2.20982,5.70871 -2.20982,8.83929 0,5.89286 2.05636,12.76786 6.16909,20.625 l -0.36831,-0.0921 0.0921,0.0921 c -5.52455,-2.51674 -10.43527,-5.06417 -14.73214,-7.6423 -4.29688,-2.57813 -8.56306,-5.64732 -12.79855,-9.20759 -4.17411,-3.56027 -7.6423,-7.30469 -10.40458,-11.23326 -2.76227,-3.98995 -5.00279,-8.62444 -6.72154,-13.90346 -1.65737,-5.27901 -2.48605,-10.92633 -2.48605,-16.94196 0,-4.78795 0.73661,-9.20759 2.20982,-13.25893 1.5346,-4.05134 3.49889,-7.48884 5.89286,-10.3125 2.45536,-2.88505 5.15625,-5.58594 8.10268,-8.10268 2.94643,-2.57813 5.89285,-4.9721 8.83928,-7.18192 2.94643,-2.20982 5.61664,-4.41964 8.01061,-6.62946 2.45535,-2.20982 4.41964,-4.69587 5.89285,-7.45815 1.5346,-2.82366 2.3019,-5.80078 2.3019,-8.93136 0,-5.77009 -2.02567,-12.64509 -6.07701,-20.625 l 0.27623,0.0921 -0.0921,-0.0921 c 5.52455,2.51674 10.43527,5.06417 14.73215,7.6423 4.29687,2.57813 8.53236,5.64732 12.70647,9.20759 4.23549,3.56027 7.73438,7.33538 10.49665,11.32533 2.76228,3.92857 4.9721,8.53237 6.62947,13.81139 1.71875,5.27901 2.57812,10.92633 2.57812,16.94196 z"
           style="font-style:normal;font-variant:normal;font-weight:normal;font-stretch:normal;font-family:FontAwesome;-inkscape-font-specification:FontAwesome;fill:#000000;fill-opacity:0.46440681"
           id="path4165"
           inkscape:connector-curvature="0"
           sodipodi:nodetypes="scccsccscccscccscccsccscccscccs" />
      </g>
      <path
         sodipodi:nodetypes="scccsccscccscccscccsccscccscccs"
         inkscape:connector-curvature="0"
         id="path4157"
         style="font-style:normal;font-variant:normal;font-weight:normal;font-stretch:normal;font-size:165px;line-height:125%;font-family:FontAwesome;-inkscape-font-specification:FontAwesome;letter-spacing:0px;word-spacing:0px;fill:#000000;fill-opacity:0.46440681;stroke:none;stroke-width:1px;stroke-linecap:butt;stroke-linejoin:miter;stroke-opacity:1"
         d="m 388.21428,292.71933 c 0,4.78795 -0.7673,9.20759 -2.3019,13.25893 -1.47321,4.05134 -3.4375,7.51953 -5.89285,10.40457 -2.39397,2.82367 -5.06418,5.52456 -8.01061,8.10268 -2.94643,2.51674 -5.89285,4.88002 -8.83928,7.08985 -2.94643,2.20982 -5.64732,4.41964 -8.10268,6.62946 -2.39397,2.20982 -4.35826,4.72656 -5.89286,7.55022 -1.47321,2.76228 -2.20982,5.70871 -2.20982,8.83929 0,5.89286 2.05636,12.76786 6.16909,20.625 l -0.36831,-0.0921 0.0921,0.0921 c -5.52455,-2.51674 -10.43527,-5.06417 -14.73214,-7.6423 -4.29688,-2.57813 -8.56306,-5.64732 -12.79855,-9.20759 -4.17411,-3.56027 -7.6423,-7.30469 -10.40458,-11.23326 -2.76227,-3.98995 -5.00279,-8.62444 -6.72154,-13.90346 -1.65737,-5.27901 -2.48605,-10.92633 -2.48605,-16.94196 0,-4.78795 0.73661,-9.20759 2.20982,-13.25893 1.5346,-4.05134 3.49889,-7.48884 5.89286,-10.3125 2.45536,-2.88505 5.15625,-5.58594 8.10268,-8.10268 2.94643,-2.57813 5.89285,-4.9721 8.83928,-7.18192 2.94643,-2.20982 5.61664,-4.41964 8.01061,-6.62946 2.45535,-2.20982 4.41964,-4.69587 5.89285,-7.45815 1.5346,-2.82366 2.3019,-5.80078 2.3019,-8.93136 0,-5.77009 -2.02567,-12.64509 -6.07701,-20.625 l 0.27623,0.0921 -0.0921,-0.0921 c 5.52455,2.51674 10.43527,5.06417 14.73215,7.6423 4.29687,2.57813 8.53236,5.64732 12.70647,9.20759 4.23549,3.56027 7.73438,7.33538 10.49665,11.32533 2.76228,3.92857 4.9721,8.53237 6.62947,13.81139 1.71875,5.27901 2.57812,10.92633 2.57812,16.94196 z"
         transform="matrix(-1.3894902,0,0,1.3894902,849.68795,-66.19708)" />
      <g
         style="font-style:normal;font-variant:normal;font-weight:normal;font-stretch:normal;font-size:165px;line-height:125%;font-family:'League Gothic';-inkscape-font-specification:'League Gothic';letter-spacing:0px;word-spacing:0px;fill:#000000;fill-opacity:1;stroke:none;stroke-width:1px;stroke-linecap:butt;stroke-linejoin:miter;stroke-opacity:1"
         id="g4159"
         transform="matrix(0.93362184,0,0,0.93362184,17.442655,105.48388)">
        <path
           d="m 388.21428,292.71933 c 0,4.78795 -0.7673,9.20759 -2.3019,13.25893 -1.47321,4.05134 -3.4375,7.51953 -5.89285,10.40457 -2.39397,2.82367 -5.06418,5.52456 -8.01061,8.10268 -2.94643,2.51674 -5.89285,4.88002 -8.83928,7.08985 -2.94643,2.20982 -5.64732,4.41964 -8.10268,6.62946 -2.39397,2.20982 -4.35826,4.72656 -5.89286,7.55022 -1.47321,2.76228 -2.20982,5.70871 -2.20982,8.83929 0,5.89286 2.05636,12.76786 6.16909,20.625 l -0.36831,-0.0921 0.0921,0.0921 c -5.52455,-2.51674 -10.43527,-5.06417 -14.73214,-7.6423 -4.29688,-2.57813 -8.56306,-5.64732 -12.79855,-9.20759 -4.17411,-3.56027 -7.6423,-7.30469 -10.40458,-11.23326 -2.76227,-3.98995 -5.00279,-8.62444 -6.72154,-13.90346 -1.65737,-5.27901 -2.48605,-10.92633 -2.48605,-16.94196 0,-4.78795 0.73661,-9.20759 2.20982,-13.25893 1.5346,-4.05134 3.49889,-7.48884 5.89286,-10.3125 2.45536,-2.88505 5.15625,-5.58594 8.10268,-8.10268 2.94643,-2.57813 5.89285,-4.9721 8.83928,-7.18192 2.94643,-2.20982 5.61664,-4.41964 8.01061,-6.62946 2.45535,-2.20982 4.41964,-4.69587 5.89285,-7.45815 1.5346,-2.82366 2.3019,-5.80078 2.3019,-8.93136 0,-5.77009 -2.02567,-12.64509 -6.07701,-20.625 l 0.27623,0.0921 -0.0921,-0.0921 c 5.52455,2.51674 10.43527,5.06417 14.73215,7.6423 4.29687,2.57813 8.53236,5.64732 12.70647,9.20759 4.23549,3.56027 7.73438,7.33538 10.49665,11.32533 2.76228,3.92857 4.9721,8.53237 6.62947,13.81139 1.71875,5.27901 2.57812,10.92633 2.57812,16.94196 z"
           style="font-style:normal;font-variant:normal;font-weight:normal;font-stretch:normal;font-family:FontAwesome;-inkscape-font-specification:FontAwesome"
           id="path4161"
           inkscape:connector-curvature="0"
           sodipodi:nodetypes="scccsccscccscccscccsccscccscccs" />
      </g>
    </g>
  </g>
</svg>
